# xmcd
#
# Track frame offsets: 
#        150
#        13981
#        26708
#        40312
#        53815
#        66933
#        79813
#        93010
#        107483
#        120231
#        133649
#        147611
#        159367
#        172607
#        186263
#        200055
#        210100
#        223103
#        237072
#        250354
#        262949
#        277568
#        291435
#        302933
#        316148
#
# Disc length: 4397 seconds
#
# Revision: 0
# Processed by: cddbd v1.5.2PL0 Copyright (c) Steve Scherf et al.
# Submitted via: ExactAudioCopy v0.95a5
#
DISCID=5d112b19
DTITLE=Various Artist - Century of the Blues: The Definitive Country Blues (d
DTITLE=isc four)
DYEAR=2003
DGENRE=Blues
TTITLE0=Key To The Highway - Big Bill Broonzy
TTITLE1=Baby Please Don't Go - Big Joe Williams
TTITLE2=Poor Man Blues - Henry Townsend
TTITLE3=You Can't Get That Stuff No More - Tampa Red
TTITLE4=Worried Life Blues - Big Maceo Merriweather
TTITLE5=Jockey Blues - Bill "Jazz" Gillum
TTITLE6=That's All Right - Arthur Crudup
TTITLE7=When The Levee Breaks - Kansas Joe McCoy
TTITLE8=Me and My Chauffeur - Memphis Minnie
TTITLE9=Guitar Swing - Casey Bill Weldon
TTITLE10=Mama Don't Allow No.2 - Washboard Sam
TTITLE11=Gypsy Woman - Muddy Waters
TTITLE12=Moanin' at Midnight - Howlin' Wolf
TTITLE13=Good Morning Little Schoolgirl - Sonny Boy Williamson 
TTITLE14=Eyesight To the Blind - Sonny Boy Williamson
TTITLE15=Evans Shuffle - Little Walter
TTITLE16=This Train - Sister Rosetta Tharpe
TTITLE17=Prowling Nighthawk - Robert Nighthawk
TTITLE18=Ain't Nobody's Business Part 1 - Jimmy Witherspoon
TTITLE19=Dust My Broom - Elmore James
TTITLE20=B.B. Boogie - B.B. King
TTITLE21=Three O Clock Boogie - B.B. King
TTITLE22=Everyday i Have the Blues - Lowell Fulson
TTITLE23=Mean Old World - T-Bone Walker
TTITLE24=Call It Stormy Monday - T-Bone Walker
EXTD=
EXTT0=
EXTT1=
EXTT2=
EXTT3=
EXTT4=
EXTT5=
EXTT6=
EXTT7=
EXTT8=
EXTT9=
EXTT10=
EXTT11=
EXTT12=
EXTT13=
EXTT14=
EXTT15=
EXTT16=
EXTT17=
EXTT18=
EXTT19=
EXTT20=
EXTT21=
EXTT22=
EXTT23=
EXTT24=
PLAYORDER=
